<?xml version="1.0" standalone="no"?>
<!DOCTYPE svg PUBLIC "-//W3C//DTD SVG 20010904//EN"
 "http://www.w3.org/TR/2001/REC-SVG-20010904/DTD/svg10.dtd">
<svg version="1.0" xmlns="http://www.w3.org/2000/svg"
 width="108.000000pt" height="108.000000pt" viewBox="0 0 108.000000 108.000000"
 preserveAspectRatio="xMidYMid meet">
<metadata>
Created by potrace 1.14, written by Peter Selinger 2001-2017
</metadata>
<g transform="translate(0.000000,108.000000) scale(0.100000,-0.100000)"
fill="#000000" stroke="none">
<path d="M410 1064 c-195 -51 -345 -203 -395 -399 -23 -94 -14 -223 23 -319
81 -207 259 -333 482 -341 105 -4 166 8 257 51 67 32 81 42 153 115 143 144
188 371 111 564 -37 93 -63 131 -138 201 -58 55 -109 86 -193 116 -71 26 -223
32 -300 12z"/>
</g>
</svg>
